<svg width="234" height="34" viewBox="0 0 234 34" fill="none" xmlns="http://www.w3.org/2000/svg">
<path opacity="0.07" d="M49.5833 0H4.25C1.84167 0 0 1.84167 0 4.25V29.75C0 32.1583 1.98333 34 4.25 34H49.5833C51.9917 34 53.8333 32.1583 53.8333 29.75V4.25C53.8333 1.84167 51.85 0 49.5833 0Z" fill="#434648"/>
<path d="M49.5841 1.41699C51.1425 1.41699 52.4175 2.69199 52.4175 4.25033V29.7503C52.4175 31.3087 51.1425 32.5837 49.5841 32.5837H4.25081C2.69248 32.5837 1.41748 31.3087 1.41748 29.7503V4.25033C1.41748 2.69199 2.69248 1.41699 4.25081 1.41699H49.5841Z" fill="white"/>
<path d="M33.8575 11.758C34.1409 10.3413 33.8575 9.34967 33.0075 8.49967C32.1575 7.50801 30.5992 7.08301 28.6159 7.08301H22.8075C22.3825 7.08301 22.0992 7.36634 21.9575 7.79134L19.8325 22.0997C19.8325 22.383 19.9742 22.6663 20.2575 22.6663H24.0825L24.6492 17.8497L27.1992 14.733L33.8575 11.758V11.758Z" fill="#003087"/>
<path d="M33.8588 11.7588L33.5754 12.0421C32.8671 16.0088 30.4588 17.4255 27.0588 17.4255H25.5004C25.0754 17.4255 24.7921 17.7088 24.6504 18.1338L23.8004 23.6588L23.5171 25.0755C23.5171 25.3588 23.6588 25.6421 23.9421 25.6421H26.9171C27.3421 25.6421 27.6254 25.3588 27.6254 25.0755V24.9338L28.1921 21.5338V21.3921C28.1921 21.1088 28.6171 20.8255 28.9004 20.8255H29.3254C32.3004 20.8255 34.5671 19.6921 35.1338 16.2921C35.4171 14.8755 35.2754 13.7421 34.5671 12.8921C34.4254 12.1838 34.1421 11.9005 33.8588 11.7588V11.7588Z" fill="#3086C8"/>
<path d="M33.0082 11.4748C32.8666 11.3331 32.7249 11.3331 32.5832 11.3331C32.4416 11.3331 32.2999 11.3331 32.1582 11.1915C31.7332 11.0498 31.1666 11.0498 30.5999 11.0498H26.3499C26.2082 11.0498 26.0666 11.0498 26.0666 11.1915C25.7832 11.3331 25.6416 11.4748 25.6416 11.7581L24.6499 17.9915V18.1331C24.6499 17.7081 25.0749 17.4248 25.4999 17.4248H27.3416C30.8832 17.4248 33.1499 16.0081 33.8582 12.0415V11.7581C33.7166 11.6165 33.4332 11.4748 33.1499 11.4748H33.0082V11.4748Z" fill="#012169"/>
<path opacity="0.07" d="M109.417 0H64.0835C61.6752 0 59.8335 1.84167 59.8335 4.25V29.75C59.8335 32.1583 61.8168 34 64.0835 34H109.417C111.825 34 113.667 32.1583 113.667 29.75V4.25C113.667 1.84167 111.683 0 109.417 0Z" fill="#434648"/>
<path d="M109.417 1.41699C110.975 1.41699 112.25 2.69199 112.25 4.25033V29.7503C112.25 31.3087 110.975 32.5837 109.417 32.5837H64.0838C62.5255 32.5837 61.2505 31.3087 61.2505 29.7503V4.25033C61.2505 2.69199 62.5255 1.41699 64.0838 1.41699H109.417Z" fill="white"/>
<path d="M99.9243 14.308H99.4994C98.9327 15.7247 98.5077 16.433 98.0827 18.558H100.774C100.349 16.433 100.349 15.4413 99.9243 14.308V14.308ZM104.033 22.6663H101.624C101.483 22.6663 101.483 22.6663 101.341 22.5247L101.058 21.2497L100.916 20.9663H97.516C97.3744 20.9663 97.2327 20.9663 97.2327 21.2497L96.8077 22.5247C96.8077 22.6663 96.666 22.6663 96.666 22.6663H93.691L93.9744 21.958L98.0827 12.3247C98.0827 11.6163 98.5077 11.333 99.216 11.333H101.341C101.483 11.333 101.624 11.333 101.624 11.6163L103.608 20.8247C103.749 21.3913 103.891 21.8163 103.891 22.383C104.033 22.5247 104.033 22.5247 104.033 22.6663V22.6663ZM85.0493 22.2413L85.616 19.6913C85.7577 19.6913 85.8993 19.833 85.8993 19.833C86.891 20.258 87.8827 20.5413 88.8744 20.3997C89.1577 20.3997 89.5827 20.258 89.866 20.1163C90.5744 19.833 90.5743 19.1247 90.0077 18.558C89.7243 18.2747 89.2994 18.133 88.8744 17.8497C88.3077 17.5663 87.741 17.283 87.316 16.858C85.616 15.4413 86.1827 13.458 87.1743 12.4663C88.0243 11.8997 88.4494 11.333 89.5827 11.333C91.2827 11.333 93.1244 11.333 93.9744 11.6163H94.116C93.9744 12.4663 93.8327 13.1747 93.5493 14.0247C92.841 13.7413 92.1327 13.458 91.4243 13.458C90.9993 13.458 90.5743 13.458 90.1493 13.5997C89.866 13.5997 89.7244 13.7413 89.5827 13.883C89.2994 14.1663 89.2994 14.5913 89.5827 14.8747L90.291 15.4413C90.8577 15.7247 91.4244 16.008 91.8494 16.2913C92.5577 16.7163 93.266 17.4247 93.4077 18.2747C93.691 19.5497 93.266 20.683 92.1327 21.533C91.4243 22.0997 91.141 22.383 90.1493 22.383C88.166 22.383 86.6077 22.5247 85.3327 22.0997C85.191 22.383 85.191 22.383 85.0493 22.2413V22.2413ZM80.091 22.6663C80.2327 21.6747 80.2327 21.6747 80.3743 21.2497C81.0827 18.133 81.791 14.8747 82.3577 11.758C82.4993 11.4747 82.4994 11.333 82.7827 11.333H85.3327C85.0493 13.033 84.766 14.308 84.341 15.8663C83.916 17.9913 83.491 20.1163 82.9243 22.2413C82.9243 22.5247 82.7827 22.5247 82.4993 22.5247M66.916 11.6163C66.916 11.4747 67.1993 11.333 67.341 11.333H72.1577C72.866 11.333 73.4327 11.758 73.5743 12.4663L74.8493 18.6997C74.8493 18.8413 74.8493 18.8413 74.991 18.983C74.991 18.8413 75.1327 18.8413 75.1327 18.8413L78.1077 11.6163C77.966 11.4747 78.1077 11.333 78.2493 11.333H81.2244C81.2244 11.4747 81.2243 11.4747 81.0827 11.6163L76.691 21.958C76.5493 22.2413 76.5493 22.383 76.4077 22.5247C76.266 22.6663 75.9827 22.5247 75.6993 22.5247H73.5743C73.4327 22.5247 73.291 22.5247 73.291 22.2413L71.0243 13.458C70.741 13.1747 70.316 12.7497 69.7493 12.608C68.8993 12.183 67.341 11.8997 67.0577 11.8997L66.916 11.6163Z" fill="#142688"/>
<path opacity="0.07" d="M169.25 0H123.917C121.509 0 119.667 1.84167 119.667 4.25V29.75C119.667 32.1583 121.65 34 123.917 34H169.25C171.659 34 173.5 32.1583 173.5 29.75V4.25C173.5 1.84167 171.517 0 169.25 0Z" fill="#434648"/>
<path d="M169.251 1.41699C170.809 1.41699 172.084 2.69199 172.084 4.25033V29.7503C172.084 31.3087 170.809 32.5837 169.251 32.5837H123.917C122.359 32.5837 121.084 31.3087 121.084 29.7503V4.25033C121.084 2.69199 122.359 1.41699 123.917 1.41699H169.251Z" fill="#006FCF"/>
<path d="M132.376 14.546L133.473 17.2037H131.288L132.376 14.546ZM155.149 14.6565H150.932V15.8281H155.081V17.5833H150.94V18.8895H155.158V19.9364L158.1 16.756L155.158 13.441L155.149 14.6565ZM135.227 11.3415H140.886L142.143 14.0828L143.307 11.333H157.998L159.525 13.0188L161.105 11.333H167.852L162.867 16.79L167.801 22.213H160.953L159.426 20.5272L157.832 22.213H133.876L133.177 20.5272H131.576L130.875 22.213H125.334L129.989 11.333H134.848L135.227 11.3415ZM147.499 12.8687H144.327L142.202 17.878L139.9 12.8687H136.752V19.6828L133.834 12.8687H131.011L127.636 20.6773H129.839L130.539 18.9915H134.216L134.916 20.6773H138.77V15.1028L141.25 20.6858H142.936L145.401 15.1198V20.6873H147.467L147.501 12.8673L147.499 12.8687ZM160.731 16.79L164.316 12.8687H161.735L159.467 15.3138L157.274 12.8687H148.924V20.6858H157.155L159.442 18.2237L161.635 20.6858H164.291L160.732 16.79H160.731Z" fill="white"/>
<path opacity="0.07" d="M229.084 0H183.75C181.342 0 179.5 1.84167 179.5 4.25V29.75C179.5 32.1583 181.484 34 183.75 34H229.084C231.492 34 233.334 32.1583 233.334 29.75V4.25C233.334 1.84167 231.35 0 229.084 0Z" fill="#434648"/>
<path d="M229.084 1.41699C230.642 1.41699 231.917 2.69199 231.917 4.25033V29.7503C231.917 31.3087 230.642 32.5837 229.084 32.5837H183.751C182.192 32.5837 180.917 31.3087 180.917 29.7503V4.25033C180.917 2.69199 182.192 1.41699 183.751 1.41699H229.084Z" fill="white"/>
<path d="M200.75 26.9163C206.227 26.9163 210.667 22.4765 210.667 16.9997C210.667 11.5229 206.227 7.08301 200.75 7.08301C195.273 7.08301 190.833 11.5229 190.833 16.9997C190.833 22.4765 195.273 26.9163 200.75 26.9163Z" fill="#EB001B"/>
<path d="M212.084 26.9163C217.561 26.9163 222.001 22.4765 222.001 16.9997C222.001 11.5229 217.561 7.08301 212.084 7.08301C206.607 7.08301 202.167 11.5229 202.167 16.9997C202.167 22.4765 206.607 26.9163 212.084 26.9163Z" fill="#F79E1B"/>
<path d="M210.667 16.9998C210.667 13.5998 208.967 10.6248 206.417 8.9248C203.867 10.7665 202.167 13.7415 202.167 16.9998C202.167 20.2581 203.867 23.3748 206.417 25.0748C208.967 23.3748 210.667 20.3998 210.667 16.9998Z" fill="#FF5F00"/>
</svg>
