<svg width="60" height="58" viewBox="0 0 60 58" fill="none" xmlns="http://www.w3.org/2000/svg">
<path d="M30.6699 43.2502L30.2638 42.8916H21.8753L23.6692 43.5405L17.8493 52.0666H15.8775L15.0845 52.6613L15.3241 52.7909H35.817L36.2742 52.4069L30.6699 43.2502Z" fill="#ED5469"/>
<path d="M23.9613 43.2502L24.5596 42.8916H20.8171L20.2189 43.2502L14.6147 52.4069L15.3242 52.7909H19.0666L18.3571 52.4069L23.9613 43.2502Z" fill="#E63850"/>
<path d="M45.0946 20.5552H5.79467L4.13623 21.4007L4.88928 27.4057L8.17135 32.992L15.3674 40.5373L23.6693 43.5403L23.5279 43.7474C24.1602 43.799 24.7991 43.8267 25.4445 43.8267C37.6877 43.8267 47.7225 34.3722 48.6466 22.366L45.0946 20.5552Z" fill="#FFE559"/>
<path d="M5.98518 22.3661L9.53725 20.5552H5.79475L2.24268 22.3661C3.1667 34.3724 13.2015 43.8269 25.4446 43.8269C26.0746 43.8269 26.6984 43.8005 27.3159 43.7513C15.9357 42.8456 6.86162 33.7545 5.98518 22.3661Z" fill="#FFD500"/>
<path d="M25.4448 40.205C36.2971 40.205 45.0947 31.4075 45.0947 20.5552C45.0947 9.70283 36.2971 0.905273 25.4448 0.905273C14.5925 0.905273 5.79492 9.70283 5.79492 20.5552C5.79492 31.4075 14.5925 40.205 25.4448 40.205Z" fill="#B5DCFF"/>
<path d="M11.3278 20.5553C11.3278 10.6593 18.6816 2.4498 28.2113 1.10098C27.307 0.973008 26.3837 0.905273 25.4448 0.905273C14.6098 0.905273 5.79492 9.72023 5.79492 20.5552C5.79492 31.3902 14.6098 40.205 25.4448 40.205C26.3837 40.205 27.307 40.1373 28.2113 40.0093C18.6816 38.6607 11.3278 30.4514 11.3278 20.5553Z" fill="#8BCAFF"/>
<path d="M18.8721 32.2432H18.376L17.4282 33.6056V35.4852L18.0387 36.5293L18.7796 36.9125C19.6272 36.4659 20.2054 35.5768 20.2054 34.5522C20.2054 33.5653 19.669 32.7043 18.8721 32.2432Z" fill="#F27182"/>
<path d="M17.5388 34.5525C17.5388 33.5656 18.0753 32.7045 18.8721 32.2434C18.4798 32.0164 18.0246 31.8857 17.5388 31.8857C16.066 31.8857 14.8721 33.0796 14.8721 34.5525C14.8721 36.0253 16.066 37.2192 17.5388 37.2192C18.0246 37.2192 18.4798 37.0886 18.8721 36.8615C18.0754 36.4003 17.5388 35.5393 17.5388 34.5525Z" fill="#ED5469"/>
<path d="M22.9082 21.7212H22.4122L21.4644 23.0836V24.9632L22.0748 26.0073L22.8158 26.3905C23.6634 25.9439 24.2416 25.0548 24.2416 24.0303C24.2416 23.0434 23.7051 22.1823 22.9082 21.7212Z" fill="#F27182"/>
<path d="M21.5749 24.0305C21.5749 23.0437 22.1114 22.1826 22.9083 21.7214C22.5159 21.4944 22.0608 21.3638 21.5749 21.3638C20.1021 21.3638 18.9082 22.5577 18.9082 24.0305C18.9082 25.5033 20.1021 26.6972 21.5749 26.6972C22.0608 26.6972 22.5159 26.5667 22.9083 26.3396C22.1114 25.8784 21.5749 25.0173 21.5749 24.0305Z" fill="#ED5469"/>
<path d="M35.8423 24.6816H35.3463L34.3984 26.0441V27.9236L35.0089 28.9678L35.7498 29.351C36.5975 28.9044 37.1757 28.0153 37.1757 26.9907C37.1757 26.0039 36.6392 25.1428 35.8423 24.6816Z" fill="#F27182"/>
<path d="M34.509 26.9909C34.509 26.0041 35.0455 25.143 35.8424 24.6819C35.45 24.4549 34.9949 24.3242 34.509 24.3242C33.0362 24.3242 31.8423 25.5181 31.8423 26.9909C31.8423 28.4637 33.0362 29.6577 34.509 29.6577C34.9949 29.6577 35.45 29.5271 35.8424 29.3C35.0455 28.8388 34.509 27.9778 34.509 26.9909Z" fill="#ED5469"/>
<path d="M26.3223 10.1362H25.8262L24.8784 11.4987V13.3782L25.4888 14.4224L26.2298 14.8056C27.0774 14.359 27.6556 13.4699 27.6556 12.4453C27.6555 11.4583 27.119 10.5974 26.3223 10.1362Z" fill="#F27182"/>
<path d="M24.989 12.445C24.989 11.4582 25.5255 10.5971 26.3223 10.136C25.93 9.90898 25.4748 9.77832 24.989 9.77832C23.5162 9.77832 22.3223 10.9722 22.3223 12.445C22.3223 13.9179 23.5162 15.1118 24.989 15.1118C25.4748 15.1118 25.93 14.9812 26.3223 14.7541C25.5255 14.293 24.989 13.432 24.989 12.445Z" fill="#ED5469"/>
<path d="M18.2696 4.51904H17.7735L16.8257 5.88146V7.76104L17.4361 8.80518L18.1771 9.18838C19.0247 8.74178 19.6029 7.85268 19.6029 6.82811C19.6029 5.84115 19.0663 4.98018 18.2696 4.51904Z" fill="#F27182"/>
<path d="M16.9362 6.82834C16.9362 5.8415 17.4727 4.98041 18.2696 4.51928C17.8773 4.29228 17.4221 4.16162 16.9362 4.16162C15.4634 4.16162 14.2695 5.35553 14.2695 6.82834C14.2695 8.30115 15.4634 9.49506 16.9362 9.49506C17.4221 9.49506 17.8773 9.36451 18.2696 9.1374C17.4727 8.67615 16.9362 7.81518 16.9362 6.82834Z" fill="#ED5469"/>
<path d="M38.4319 52.4067H15.4237L14.9116 52.7908V56.6942L15.6812 57.2834H38.4319C39.0556 57.2834 39.5614 56.7777 39.5614 56.1538V53.5362C39.5614 52.9125 39.0558 52.4067 38.4319 52.4067Z" fill="#F27182"/>
<path d="M15.0701 56.1539V53.5363C15.0701 52.9125 15.5758 52.4067 16.1997 52.4067H12.4572C11.8334 52.4067 11.3276 52.9125 11.3276 53.5363V56.1539C11.3276 56.7777 11.8333 57.2835 12.4572 57.2835H16.1997C15.5759 57.2835 15.0701 56.7777 15.0701 56.1539Z" fill="#ED5469"/>
<path d="M5.79464 20.555C5.79464 19.9445 5.82417 19.3407 5.8789 18.7441H1.81085C0.781714 18.7441 -0.0469189 19.6027 0.00206551 20.6426C0.0478858 21.6165 0.886948 22.3658 1.86207 22.3658H5.87902C5.82417 21.7695 5.79464 21.1657 5.79464 20.555Z" fill="#0972D0"/>
<path d="M54.1059 1.13232H52.6182C50.8055 1.13232 49.3359 2.60174 49.3359 4.41451V18.4701L49.4994 18.5554H50.8777L52.3063 17.5897L52.9577 16.163V4.99611C52.9577 4.8624 53.0661 4.754 53.1998 4.754H54.1059L54.519 4.36025V1.52314L54.1059 1.13232Z" fill="#5291D9"/>
<path d="M49.6756 18.4702H49.336C49.336 18.6216 49.2133 18.7443 49.0618 18.7443H45.0103C45.0651 19.3408 45.0945 19.9445 45.0945 20.5552C45.0945 21.1657 45.0651 21.7695 45.0103 22.3661H49.6755C51.4881 22.3661 52.9577 20.8965 52.9577 19.0839V15.188C52.9578 17.0008 51.4883 18.4702 49.6756 18.4702Z" fill="#0972D0"/>
<path d="M58.138 1.13232H54.106V4.754H58.1892C59.2184 4.754 60.047 3.89549 59.998 2.85557C59.9522 1.88162 59.1131 1.13232 58.138 1.13232Z" fill="#DBEDFF"/>
<path d="M25.4446 0C14.1103 0 4.88916 9.22113 4.88916 20.5554C4.88916 31.8896 14.1103 41.1108 25.4446 41.1108C36.7788 41.1108 45.9999 31.8896 45.9999 20.5554C45.9999 9.22113 36.7788 0 25.4446 0ZM44.1149 21.4607C43.7382 23.7916 41.9144 25.9888 38.8826 27.7256C35.3019 29.7769 30.5294 30.9066 25.4446 30.9066C20.3597 30.9066 15.5872 29.7769 12.0065 27.7256C8.97467 25.9888 7.15088 23.7916 6.77424 21.4607H44.1149ZM6.77424 19.6499C7.15088 17.319 8.97467 15.1219 12.0065 13.385C15.5873 11.3338 20.3597 10.2041 25.4446 10.2041C30.5294 10.2041 35.3018 11.3338 38.8826 13.385C41.9144 15.1219 43.7382 17.319 44.1149 19.6499H6.77424ZM25.4446 1.81078C33.5867 1.81078 40.5319 7.02973 43.1136 14.2977C42.2037 13.3972 41.0895 12.5624 39.7828 11.8137C35.9324 9.60797 30.8403 8.39309 25.4447 8.39309C20.049 8.39309 14.9569 9.60785 11.1065 11.8137C9.79979 12.5623 8.68568 13.3972 7.77572 14.2977C10.3572 7.02984 17.3022 1.81078 25.4446 1.81078ZM25.4446 39.2999C17.3024 39.2999 10.3572 34.0809 7.77561 26.813C8.68557 27.7134 9.79967 28.5483 11.1064 29.297C14.9569 31.5027 20.0489 32.7175 25.4446 32.7175C30.8402 32.7175 35.9324 31.5027 39.7827 29.297C41.0894 28.5484 42.2035 27.7134 43.1135 26.813C40.5319 34.0809 33.5867 39.2999 25.4446 39.2999Z" fill="#DBEDFF"/>
</svg>
