<svg width="62" height="60" viewBox="0 0 62 60" fill="none" xmlns="http://www.w3.org/2000/svg">
<path d="M22.8849 31.1309H17.4011C15.0972 31.1309 12.8176 30.3638 10.9821 28.971L3.80126 23.5223C0.461092 20.9878 -0.843654 16.629 0.55467 12.6761C1.89112 8.8981 5.48172 6.32769 9.48928 6.27995C13.4052 6.23348 15.63 6.35723 15.7227 6.36258L15.4775 10.6726C15.4561 10.6715 13.2915 10.5525 9.54059 10.5968C7.33545 10.623 5.35975 12.0372 4.62449 14.1159C3.85511 16.2908 4.57293 18.6889 6.41075 20.0834L13.5914 25.5322C14.6806 26.3588 16.0336 26.8139 17.4009 26.8139H22.8847V31.1309H22.8849Z" fill="#FFA300"/>
<path d="M10.9822 26.696L3.80137 21.2472C1.6725 19.6318 0.372212 17.275 0.0698338 14.7549C-0.328414 18.0838 1.03986 21.4262 3.80137 23.5216L10.9822 28.9703C12.8176 30.3631 15.0973 31.1302 17.4013 31.1302H22.8851V28.8558H17.4013C15.0973 28.8558 12.8176 28.0887 10.9822 26.696Z" fill="#CC8300"/>
<path d="M38.438 31.1309H43.9218C46.2257 31.1309 48.5053 30.3638 50.3409 28.971L57.5217 23.5223C60.8619 20.9878 62.1666 16.629 60.7683 12.6761C59.4318 8.8981 55.8412 6.32769 51.8337 6.27995C47.9178 6.23348 45.6929 6.35723 45.6002 6.36258L45.8454 10.6726C45.8668 10.6715 48.0315 10.5525 51.7824 10.5968C53.9875 10.623 55.9632 12.0372 56.6985 14.1159C57.4678 16.2908 56.75 18.6889 54.9122 20.0834L47.7315 25.5322C46.6423 26.3588 45.2893 26.8139 43.922 26.8139H38.4382V31.1309H38.438Z" fill="#FFA300"/>
<path d="M60.7679 12.6765C60.1424 10.908 59.0228 9.40428 57.5977 8.2998C58.2125 9.09223 58.7096 9.98701 59.0549 10.9635C60.4532 14.9165 59.1484 19.2752 55.8083 21.8097L48.6275 27.2585C46.792 28.6512 44.5123 29.4183 42.2084 29.4183H38.4375V31.1312H43.9213C46.2252 31.1312 48.5048 30.3641 50.3404 28.9714L57.5212 23.5226C60.8615 20.9881 62.1662 16.6294 60.7679 12.6765Z" fill="#CC8300"/>
<path d="M37.6527 46.9423L35.099 45.0069C34.0015 44.1751 33.3568 42.8773 33.3568 41.5003V32.9092H27.5729V41.5003C27.5729 42.8773 26.9282 44.1751 25.8307 45.0069L23.277 46.9423C22.481 47.5456 22.9076 48.8148 23.9063 48.8148H37.0233C38.0221 48.8147 38.4487 47.5456 37.6527 46.9423Z" fill="#FFA300"/>
<path d="M37.6526 46.9423L35.0989 45.0069C34.0014 44.1751 33.3567 42.8773 33.3567 41.5003V32.9092H30.3589V41.5003C30.3589 42.8773 31.0036 44.1751 32.1011 45.0069L34.6548 46.9423C35.4508 47.5456 35.0242 48.8148 34.0255 48.8148H37.0233C38.022 48.8147 38.4486 47.5456 37.6526 46.9423Z" fill="#CC8300"/>
<path d="M46.8824 0H14.4403C13.8187 0 13.3149 0.503794 13.3149 1.12536V12.7424C13.3149 17.7163 14.6999 22.5919 17.3147 26.823L20.3105 31.6705C25.0057 39.2679 36.0369 39.3199 40.8033 31.7669L43.8745 26.9003C46.5746 22.6216 48.0077 17.6656 48.0077 12.6062V1.12536C48.0077 0.503921 47.5039 0 46.8824 0Z" fill="#FFC839"/>
<path d="M46.8827 0H41.6827V6.28081C41.6827 11.3403 40.2496 16.2963 37.5494 20.5751L34.4783 25.4417C31.078 30.8297 24.4901 32.3464 19.2881 30.0158L20.3108 31.6707C25.006 39.268 36.0372 39.32 40.8037 31.767L43.8748 26.9005C46.5749 22.6217 48.008 17.6658 48.008 12.6063V1.12536C48.008 0.503921 47.5042 0 46.8827 0Z" fill="#FFA300"/>
<path d="M30.3589 23.7667C34.4132 23.7667 37.6998 20.4801 37.6998 16.4258C37.6998 12.3716 34.4132 9.08496 30.3589 9.08496C26.3047 9.08496 23.0181 12.3716 23.0181 16.4258C23.0181 20.4801 26.3047 23.7667 30.3589 23.7667Z" fill="#CC8300"/>
<path d="M33.092 9.61328C33.4313 10.4583 33.6199 11.3801 33.6199 12.3464C33.6199 16.4007 30.3333 19.6872 26.279 19.6872C25.3127 19.6872 24.3909 19.4987 23.5459 19.1594C24.6301 21.8597 27.2709 23.7673 30.3589 23.7673C34.4132 23.7673 37.6997 20.4807 37.6997 16.4264C37.6999 13.3383 35.7923 10.6976 33.092 9.61328Z" fill="#FFA300"/>
<path d="M30.8951 13.1608L31.6637 14.718C31.7336 14.8595 31.8686 14.9577 32.0248 14.9803L33.7433 15.23C34.1366 15.2871 34.2936 15.7704 34.009 16.0479L32.7655 17.2601C32.6525 17.3702 32.6009 17.5289 32.6277 17.6844L32.9213 19.3961C32.9885 19.7877 32.5774 20.0864 32.2256 19.9015L30.6885 19.0934C30.5488 19.02 30.3819 19.02 30.2422 19.0934L28.7051 19.9015C28.3534 20.0864 27.9423 19.7877 28.0095 19.3961L28.3031 17.6844C28.3298 17.5288 28.2782 17.3702 28.1652 17.2601L26.9217 16.0479C26.6371 15.7704 26.7941 15.2871 27.1874 15.23L28.9059 14.9803C29.0621 14.9577 29.1971 14.8595 29.267 14.718L30.0356 13.1608C30.2111 12.8045 30.7193 12.8045 30.8951 13.1608Z" fill="#FFC839"/>
<path d="M34.0086 16.0476C34.2932 15.7702 34.1362 15.2869 33.7429 15.2297L33.1164 15.1387L31.4464 16.7666C31.2789 16.9296 31.2027 17.1647 31.2422 17.395L31.6172 19.5815L32.2252 19.9011C32.5769 20.086 32.9881 19.7873 32.9208 19.3956L32.6272 17.684C32.6005 17.5284 32.6521 17.3698 32.7651 17.2596L34.0086 16.0476Z" fill="#FFA300"/>
<path d="M40.1858 60.0005H21.1369C20.5351 60.0005 20.0474 59.5126 20.0474 58.9109V49.905C20.0474 49.3032 20.5352 48.8154 21.1369 48.8154H40.1858C40.7876 48.8154 41.2753 49.3033 41.2753 49.905V58.9109C41.2755 59.5126 40.7876 60.0005 40.1858 60.0005Z" fill="#407093"/>
<path d="M40.1887 48.8145H38.125V55.7625C38.125 56.3627 37.6385 56.8492 37.0383 56.8492H20.0474V58.9129C20.0474 59.513 20.5338 59.9995 21.134 59.9995H40.1887C40.7889 59.9995 41.2753 59.513 41.2753 58.9129V49.9011C41.2755 49.3009 40.7889 48.8145 40.1887 48.8145Z" fill="#365E7D"/>
</svg>
