<svg width="70" height="70" viewBox="0 0 70 70" fill="none" xmlns="http://www.w3.org/2000/svg">
<rect width="70" height="70" rx="35" fill="#FFA500"/>
<path d="M49.5781 40.648L50.8761 41.3977C50.4036 38.8542 49.2007 36.1715 48.2336 34.0147L48.1223 33.7661H46.7837C47.8819 35.9825 48.7208 37.681 49.5781 40.648Z" fill="#BABABA"/>
<path d="M25.2019 33.4417C25.1939 33.6218 25.0446 33.7668 24.8635 33.7668H22.6375C21.5611 36.1647 20.3321 38.8828 19.8657 41.4886C21.8462 40.3836 21.8185 40.2737 22.058 40.3378C22.1457 40.3613 22.219 40.4176 22.2644 40.4962L24.692 44.7004C25.3314 43.6524 25.3037 43.4965 25.5381 43.4338C25.7962 43.3645 25.4946 43.3352 32.5083 47.3431C32.6706 47.4368 32.7265 47.645 32.6328 47.8074L32.229 48.5067H33.6017V44.473C33.6017 44.2855 33.7543 44.133 33.9417 44.133H38.1937L37.525 42.9755C37.4292 42.8095 37.4902 42.6028 37.6493 42.511C44.6556 38.5075 44.3616 38.5325 44.6195 38.6016C44.7072 38.6251 44.7805 38.6814 44.8259 38.76L46.7813 42.1473C48.015 40.078 47.9265 40.0122 48.1662 39.9481C48.254 39.9245 48.3456 39.9366 48.4242 39.982L49.5783 40.6487C48.6552 37.4538 47.6691 35.5534 46.7839 33.7668H35.6719C35.4874 33.7668 35.3351 33.6165 35.3324 33.4318C35.3324 33.4317 35.3324 33.4317 35.3324 33.4317H34.4726V37.595C34.4726 37.7824 34.32 37.9349 34.1326 37.9349H26.3818C26.1944 37.9349 26.0418 37.7824 26.0418 37.595V33.4424V33.4316H25.2034L25.2031 33.4416L25.2019 33.4417Z" fill="#FCFFFD"/>
<path d="M25.3467 51.807H29.5373L31.8734 47.7611L25.7499 44.2256L25.0838 45.3794C27.3326 49.3448 27.3697 49.1704 27.3025 49.4209C27.2378 49.6628 27.2121 49.5483 24.6318 51.0775C24.8656 51.3289 25.1041 51.5723 25.3467 51.807Z" fill="#FFED83"/>
<path d="M21.2434 45.6701C21.9424 47.556 22.9752 49.1768 24.1684 50.5609L26.5101 49.2092L21.8452 41.1304L20.8327 41.715C20.6857 43.1035 20.7872 44.4396 21.2434 45.6701Z" fill="#FFED83"/>
<path d="M44.0566 51.6407C44.4636 51.4361 45.0122 51.1299 45.6293 50.7102C43.0019 49.1538 42.9855 49.2739 42.9204 49.0318C42.8512 48.7737 42.8541 49.0191 46.3883 42.8268L44.4066 39.394L38.2832 42.9295L38.9782 44.1327H41.6942C41.8816 44.1327 42.0341 44.2852 42.0341 44.4727V51.8076H43.3305C43.6053 51.8076 43.8584 51.7437 44.0566 51.6407Z" fill="#FFED83"/>
<path d="M49.7514 41.5339L48.3782 40.7407L43.7134 48.8193L46.1398 50.2199C47.2707 48.9672 47.9638 47.7518 48.4688 46.8805C49.5078 45.0878 50.0773 43.5702 49.7514 41.5339Z" fill="#FFED83"/>
<path d="M30.9697 27.9253H27.708V37.2551H33.7928C33.7928 36.3143 33.7928 31.4919 33.7928 30.5581L33.1824 30.8171C31.4133 31.5684 29.7659 29.4627 30.9697 27.9253Z" fill="#FFED83"/>
<path d="M28.0724 19.1845L26.185 23.1993C26.0382 23.6907 26.0636 24.2136 26.3193 24.7419C26.5639 25.2471 26.9432 26.1027 27.4429 27.2451H27.6333C27.5376 26.8638 26.7921 23.8986 26.7894 23.8877C26.6127 23.1936 26.7131 22.4663 27.0722 21.8399L29.0762 18.3433C28.6538 18.5233 28.3125 18.8177 28.0724 19.1845Z" fill="#FFE2CA"/>
<path d="M46.4897 26.4611H46.5005V28.8086H49.5386V27.859C49.3248 28.0042 49.0671 28.0892 48.7897 28.0892C48.0528 28.0892 47.4533 27.4897 47.4533 26.7528C47.4533 26.0158 48.0528 25.4163 48.7897 25.4163C49.0671 25.4163 49.3248 25.5013 49.5386 25.6464V20.1323H46.5006C46.5009 26.6151 46.5022 26.4496 46.5007 26.4599L46.4897 26.4611Z" fill="#FF7D7D"/>
<path d="M48.7909 26.0962C48.4289 26.0962 48.1343 26.3907 48.1343 26.7528C48.1343 27.1148 48.4289 27.4093 48.7909 27.4093C49.1529 27.4093 49.4475 27.1148 49.4475 26.7528C49.4475 26.3907 49.1529 26.0962 48.7909 26.0962Z" fill="#FFED83"/>
<path d="M43.1822 20.645C43.1776 20.635 42.5483 19.3018 39.6651 18.5158C37.7492 17.994 33.0981 17.8718 31.7968 17.8005C31.3637 17.776 30.9284 17.8762 30.5381 18.0903C29.5109 18.6466 29.4999 19.3531 27.4355 22.7574C27.29 23.3986 27.3784 23.4384 28.3339 27.2452H29.4273C29.3174 26.5453 29.1919 25.7364 28.9553 24.2116C28.8436 23.5011 29.0106 22.7861 29.4253 22.1983L31.8634 18.7337C32.122 18.3661 32.6786 18.7568 32.4194 19.1249L29.981 22.5899C29.6686 23.0327 29.5429 23.5713 29.627 24.1065C29.8357 25.4511 29.992 26.4594 30.1155 27.2452H31.9707L32.5089 27.0168L32.0402 24.0029C32.001 23.7512 32.0631 23.8625 34.213 20.75C34.2918 20.638 34.4292 20.5844 34.5629 20.6134C35.4896 20.814 36.4154 20.7652 36.4049 20.7652C36.5158 20.7762 36.6268 20.799 36.7058 20.9284C37.3847 22.0448 38.2082 23.6688 38.2763 25.0658C38.2834 25.2084 38.2002 25.3401 38.0695 25.3957C31.6027 28.1733 31.879 27.9469 31.5904 28.2446C30.673 29.1862 31.7214 30.6985 32.9163 30.1909L33.999 29.7327C38.094 28.0331 37.9306 27.9669 38.1762 28.0755C38.1918 28.0823 39.7707 28.7494 41.7522 28.065C43.7586 27.3728 44.5751 26.2682 44.5832 26.2571C44.7541 26.0206 44.9907 26.1529 45.8209 26.1154V20.8023C45.0424 20.8168 44.2639 20.8314 43.4853 20.8459C43.3531 20.8459 43.2337 20.7668 43.1822 20.645Z" fill="#FFE2CA"/>
<path d="M27.436 22.7575L29.563 19.0464C30.0467 18.2039 30.9384 17.7521 31.7974 17.8006C32.8804 17.8599 37.719 17.9857 39.6656 18.5159C42.5488 19.3018 43.1782 20.6351 43.1827 20.6451C43.2342 20.7669 43.3536 20.846 43.4859 20.846C44.2644 20.8314 45.0429 20.8169 45.8214 20.8023V19.7292H44.0139C43.877 19.7292 43.7541 19.6477 43.7008 19.5217C43.6948 19.5087 43.057 18.18 40.1908 17.3986C38.2654 16.8743 33.5376 16.75 32.3248 16.6837C31.464 16.6351 30.579 17.0902 30.1003 17.9242V17.9242C27.6144 22.3219 27.5576 22.2217 27.436 22.7575Z" fill="white"/>
<path d="M30.3232 51.8074H33.602V49.186H31.8367L30.3232 51.8074Z" fill="#FFED83"/>
<path d="M34.2808 44.813H41.354V51.808H34.2808V44.813Z" fill="#FFED83"/>
<path d="M49.5396 18.9741H46.5015C46.5015 19.1736 46.5015 19.6849 46.5016 20.1318H49.5396V18.9741Z" fill="white"/>
<path d="M26.7212 27.9253V33.4209V33.4424V37.2551H27.7074V27.9253H26.7212Z" fill="#FCFFFD"/>
<path d="M49.5396 25.6469C49.8939 25.8875 50.1272 26.2936 50.1272 26.7532C50.1272 27.2128 49.8939 27.6189 49.5396 27.8594V28.809H51.0799V18.9751H49.5396V20.1328V25.6469Z" fill="#EA4B4B"/>
<path d="M25.3472 51.8076C25.8871 52.3301 26.4459 52.8116 27.0105 53.2548C27.4361 53.3402 27.634 53.2946 28.6718 53.3075L29.5378 51.8076L25.3472 51.8076Z" fill="#FFBD6E"/>
<path d="M29.4565 53.3075H33.6013V51.8076H30.3225L29.4565 53.3075Z" fill="#FFBD6E"/>
<path d="M34.2808 51.8071H41.354V53.307H34.2808V51.8071Z" fill="#FFBD6E"/>
<path d="M49.7518 41.5337C50.0778 43.5709 49.5075 45.0888 48.4691 46.8803C47.9642 47.7515 47.271 48.9669 46.1401 50.2196L47.3942 50.9435C49.0772 49.3816 50.2369 47.4919 50.841 45.3268C51.0874 44.4444 51.1436 43.4124 51.0084 42.2595L49.7518 41.5337Z" fill="#FFBD6E"/>
<path d="M44.0528 51.643C43.5469 51.899 43.1441 51.7757 42.0342 51.8078V53.3078H43.2311C43.8777 53.3078 44.2724 53.0777 44.4148 53.0257C44.9979 52.7325 45.8936 52.2158 46.8544 51.4175L45.6293 50.7104C45.0271 51.1201 44.587 51.3656 44.0528 51.643Z" fill="#FFBD6E"/>
<path d="M27.443 27.2449C26.1957 24.3932 26.1981 24.5889 26.1242 24.1452C26.0723 23.8333 26.092 23.5107 26.1851 23.1991L28.0725 19.1843C28.3122 18.8182 28.6532 18.5234 29.0764 18.3431L29.4283 17.729C29.2244 17.75 29.0261 17.7789 28.9066 17.8053C28.1929 17.9604 27.5659 18.4776 27.2294 19.1889L25.342 23.2037C25.0006 24.3476 25.6576 24.8865 26.6018 27.245L27.443 27.2449Z" fill="white"/>
<path d="M24.6322 51.0781L23.9619 51.465C24.6626 52.0409 26.1209 53.0761 27.0103 53.2548C26.1605 52.5877 25.3699 51.8714 24.6322 51.0781Z" fill="white"/>
<path d="M21.2437 45.6695C20.7875 44.439 20.686 43.1029 20.8329 41.7144L19.7422 42.3441C19.6196 43.4637 19.679 44.467 19.9188 45.3264C20.5294 47.5148 21.7071 49.4211 23.4196 50.9926L24.1687 50.5603C22.9754 49.1762 21.9426 47.5554 21.2437 45.6695Z" fill="white"/>
<path d="M50.1271 26.7525C50.1271 26.2929 49.8938 25.8868 49.5394 25.6462C49.3256 25.501 49.0679 25.416 48.7906 25.416C48.0536 25.416 47.4541 26.0156 47.4541 26.7525C47.4541 27.4894 48.0536 28.0889 48.7906 28.0889C49.0679 28.0889 49.3256 28.0039 49.5394 27.8587C49.8938 27.6182 50.1271 27.2121 50.1271 26.7525ZM48.7906 27.409C48.4286 27.409 48.134 27.1145 48.134 26.7525C48.134 26.3904 48.4286 26.0959 48.7906 26.0959C49.1526 26.0959 49.4472 26.3904 49.4472 26.7525C49.4472 27.1145 49.1526 27.409 48.7906 27.409Z" fill="#290A56"/>
<path d="M26.0416 37.5947C26.0416 37.7821 26.1941 37.9346 26.3816 37.9346H34.1324C34.3198 37.9346 34.4723 37.7821 34.4723 37.5947C34.4723 36.1725 34.4723 31.6881 34.4723 30.2693L38.045 28.7533C40.4988 29.6375 43.606 28.4434 45.0222 26.7951H45.8212V29.1487C45.8212 29.3361 45.9737 29.4886 46.1612 29.4886H51.4195C51.6069 29.4886 51.7594 29.3361 51.7594 29.1487V18.6348C51.7594 18.4474 51.6069 18.2949 51.4195 18.2949H46.1612C45.9737 18.2949 45.8212 18.4474 45.8212 18.6348V19.0491H44.2115C43.914 18.5859 42.9488 17.4457 40.3692 16.7424C38.3408 16.19 33.6588 16.0765 32.3622 16.0047C31.4319 15.9523 30.5415 16.3448 29.9259 17.0182C29.5341 17.0217 29.0169 17.0847 28.7608 17.1413C27.8431 17.3407 27.0406 17.9978 26.6143 18.899C24.5925 23.2024 24.7126 22.9374 24.6994 22.98C24.4866 23.6666 24.5455 24.3968 24.8652 25.0356L26.0416 27.6578V33.4206V33.4313V33.4421L26.0416 37.5947ZM46.5011 18.9748H49.5392H51.0796V28.8087H49.5392H46.5011V26.4612H46.4903L46.5013 26.46C46.5027 26.4496 46.5012 19.3223 46.5011 18.9748ZM33.7925 37.2547H27.7077H26.7215V33.4421V33.4206V27.9249H30.9693C29.7613 29.4677 31.4213 31.5645 33.182 30.8168L33.7925 30.5578V37.2547ZM30.1 17.9239V17.924C30.5789 17.0898 31.464 16.6349 32.3245 16.6835C33.323 16.7381 38.2343 16.8657 40.1905 17.3984C43.0568 18.1798 43.6946 19.5084 43.7005 19.5215C43.7539 19.6475 43.8768 19.729 44.0136 19.729H45.8212V26.1152C44.9826 26.1531 44.7541 26.0209 44.5834 26.257C44.5754 26.2681 43.7589 27.3727 41.7524 28.0649C39.771 28.7492 38.1921 28.0822 38.1765 28.0754C37.9843 27.9904 38.3425 27.8885 32.9166 30.1908C31.7187 30.6997 30.6813 29.1778 31.5907 28.2445C31.7003 28.1314 31.8313 28.0423 31.9801 27.9797C38.2058 25.2783 38.2967 25.4718 38.2765 25.0656C38.1999 23.4913 36.9037 21.0627 36.6281 20.841C36.387 20.647 35.904 20.9036 34.5632 20.6133C34.4295 20.5843 34.2921 20.6379 34.2132 20.7499C32.0236 23.92 32.0025 23.7594 32.0405 24.0028L32.5091 27.0167L31.971 27.245H30.1157C29.996 26.4832 29.8718 25.6817 29.6273 24.1064C29.5431 23.5712 29.6689 23.0326 29.9813 22.5898C32.5042 18.943 32.5206 19.1242 32.4766 18.8709C32.4252 18.5754 32.0386 18.4849 31.8637 18.7336L29.4256 22.1982C29.0108 22.7859 28.8439 23.501 28.9556 24.2115C29.2404 26.0466 29.3358 26.6604 29.4276 27.245H28.3341C27.3703 23.4049 27.2927 23.3874 27.4358 22.7573C27.4813 22.5567 27.5567 22.3615 27.6619 22.1779L30.1 17.9239ZM32.7334 24.0339L34.6418 21.3221C35.1385 21.413 35.6714 21.4557 36.2256 21.4488C36.7702 22.3691 37.4448 23.706 37.5782 24.8656L33.1547 26.7428L32.7334 24.0339ZM25.3418 23.2038L27.2292 19.189C27.5657 18.4777 28.1927 17.9605 28.9064 17.8054C29.0259 17.779 29.2242 17.7501 29.4281 17.7291C28.9019 18.6472 27.5589 20.9905 27.0721 21.8398C26.7131 22.4662 26.6126 23.1934 26.7893 23.8876C26.7921 23.8985 27.5544 26.931 27.6333 27.245C27.3994 27.245 26.9734 27.245 26.6016 27.245C25.6569 24.8854 25.0005 24.3473 25.3418 23.2038Z" fill="#290A56"/>
<path d="M48.8542 33.7372L48.8442 33.7411L48.854 33.7367L48.6529 33.2878C48.5983 33.1655 48.4764 33.0865 48.3425 33.0865H35.6717C35.4617 33.0865 35.3091 33.289 35.3322 33.4312V33.4314C35.3349 33.616 35.4872 33.7663 35.6717 33.7663H48.1223L48.2336 34.0149C49.2007 36.1718 50.4036 38.8545 50.8761 41.398C50.4649 41.1604 49.0028 40.3159 48.424 39.9815C48.3454 39.9361 48.2537 39.924 48.1659 39.9476C47.9271 40.0115 48.013 40.0805 46.7811 42.1468C44.6956 38.6053 44.8634 38.6665 44.6193 38.6012C44.5316 38.5776 44.44 38.5897 44.3614 38.6351C37.387 42.7045 37.5593 42.4613 37.4908 42.717C37.4275 42.9527 37.5829 43.0162 38.1935 44.1325H33.9415C33.7541 44.1325 33.6015 44.285 33.6015 44.4725V48.5062H32.2288L32.6326 47.8068C32.7263 47.6445 32.6704 47.4363 32.5081 47.3426C25.4876 43.3308 25.7956 43.3641 25.5379 43.4333C25.3022 43.4964 25.3138 43.6804 24.6918 44.6999C22.183 40.4247 22.3139 40.4059 22.0578 40.3373C21.8183 40.2733 21.8534 40.3789 19.8655 41.4881C20.3321 38.881 21.5666 36.1513 22.6373 33.7663H24.8633C25.0444 33.7663 25.1937 33.6213 25.2017 33.4412L25.2029 33.4411L25.2032 33.4311C25.2028 33.4199 25.2029 33.4238 25.2029 33.423L25.203 33.4204H25.2026C25.1994 33.2357 25.0487 33.0864 24.8633 33.0864H22.4171C22.2832 33.0864 22.1615 33.1654 22.1069 33.2875L22.0376 33.4419H22.0376C20.4657 36.9439 18.2289 41.8013 19.2639 45.5094C20.6446 50.4583 24.4592 52.8382 26.0351 53.6317C26.4953 53.8643 27.0116 53.9872 27.5282 53.9872C43.8949 53.8671 43.4879 54.2588 44.7217 53.6321C46.2982 52.8393 50.1142 50.4607 51.4957 45.5094C52.5075 41.8851 50.3959 37.1758 48.8542 33.7372ZM19.9187 45.3267C19.6789 44.4673 19.6195 43.464 19.7421 42.3444C20.7961 41.7359 21.4533 41.3564 21.8453 41.1301L26.5102 49.209C25.5186 49.7813 24.3024 50.4833 23.4195 50.9929C21.707 49.4213 20.5293 47.5151 19.9187 45.3267ZM26.3413 53.0247C25.7738 52.739 24.9014 52.2368 23.962 51.4648C27.2633 49.5186 27.2379 49.6647 27.303 49.4213C27.3265 49.3336 27.3144 49.242 27.269 49.1633L25.0843 45.3798L25.7504 44.226L31.8739 47.7615C31.5329 48.3521 29.4166 52.0173 28.6718 53.3074C28.6718 53.3074 27.2195 53.4684 26.3413 53.0247ZM33.6015 53.3074H29.4568C29.8376 52.6478 31.6672 49.4789 31.8363 49.1861H33.6015V53.3074ZM41.3546 53.3074H34.2814C34.2814 52.6402 34.2814 45.8219 34.2814 44.8124H41.3546V53.3074ZM44.415 53.0253C43.5899 53.4446 42.9341 53.2639 42.0344 53.3074C42.0344 52.2602 42.0344 45.5069 42.0344 44.4725C42.0344 44.2851 41.8819 44.1325 41.6945 44.1325H38.9786L38.2836 42.9293L44.4069 39.3939L46.3886 42.8267L42.9548 48.7737C42.9093 48.8523 42.8973 48.9439 42.9208 49.0317C42.9444 49.1194 43.0007 49.1927 43.0793 49.2381C43.4681 49.4625 46.5136 51.2202 46.8546 51.4171C45.8277 52.2703 45.0995 52.6504 44.415 53.0253ZM50.8408 45.3267C50.2367 47.4918 49.077 49.3815 47.394 50.9434C46.9561 50.6906 44.2292 49.1167 43.7135 48.819L48.3783 40.7404C48.8026 40.9854 50.3386 41.8726 51.0083 42.2594C51.1434 43.4123 51.0872 44.4443 50.8408 45.3267Z" fill="#290A56"/>
</svg>
