<svg width="176" height="54" viewBox="0 0 176 54" fill="none" xmlns="http://www.w3.org/2000/svg">
<rect width="176" height="54" rx="27" fill="#3C3F3F"/>
<path d="M88.4993 28.6098C85.94 28.6098 83.8521 30.5709 83.8521 33.2083C83.8521 35.8457 85.94 37.8069 88.4993 37.8069C91.0586 37.8069 93.1464 35.8457 93.1464 33.2083C93.0791 30.5709 91.0586 28.6098 88.4993 28.6098ZM88.4993 36.0486C87.0849 36.0486 85.8726 34.899 85.8726 33.276C85.8726 31.5853 87.0849 30.5033 88.4993 30.5033C89.9136 30.5033 91.1259 31.6529 91.1259 33.276C91.0586 34.899 89.8463 36.0486 88.4993 36.0486ZM78.3968 28.6098C75.8375 28.6098 73.7496 30.5709 73.7496 33.2083C73.7496 35.8457 75.8375 37.8069 78.3968 37.8069C80.9561 37.8069 83.0439 35.8457 83.0439 33.2083C83.0439 30.5709 80.9561 28.6098 78.3968 28.6098ZM78.3968 36.0486C76.9824 36.0486 75.7701 34.899 75.7701 33.276C75.7701 31.5853 76.9824 30.5033 78.3968 30.5033C79.8111 30.5033 81.0234 31.6529 81.0234 33.276C80.9561 34.899 79.8111 36.0486 78.3968 36.0486ZM66.4085 30.0299V31.9911H71.0556C70.9209 33.0731 70.5168 33.8846 69.978 34.4932C69.3045 35.1695 68.2269 35.9134 66.3411 35.9134C63.4451 35.9134 61.2225 33.6141 61.2225 30.7062C61.2225 27.7983 63.4451 25.499 66.3411 25.499C67.8902 25.499 69.0351 26.1076 69.8433 26.9191L71.1903 25.5666C70.0454 24.417 68.4963 23.6055 66.2738 23.6055C62.3001 23.6055 59 26.8515 59 30.7738C59 34.7637 62.3001 37.9421 66.2738 37.9421C68.429 37.9421 69.978 37.2659 71.2577 35.9134C72.5373 34.6285 72.9414 32.8026 72.9414 31.3148C72.9414 30.8414 72.8741 30.4357 72.8067 30.0975H66.4085V30.0299ZM115.439 31.5853C115.035 30.5709 113.89 28.6098 111.466 28.6098C109.108 28.6098 107.088 30.5033 107.088 33.2083C107.088 35.7781 109.041 37.8069 111.668 37.8069C113.755 37.8069 114.968 36.522 115.507 35.7781L113.958 34.6961C113.419 35.44 112.745 35.981 111.668 35.981C110.657 35.981 109.917 35.5076 109.445 34.5608L115.574 31.9911L115.439 31.5853ZM109.176 33.0731C109.108 31.3148 110.523 30.368 111.6 30.368C112.408 30.368 113.082 30.7738 113.284 31.3824L109.176 33.0731ZM104.192 37.604H106.212V24.0112H104.192V37.604ZM100.892 29.6242H100.824C100.353 29.0832 99.4773 28.6098 98.3997 28.6098C96.1098 28.6098 93.9546 30.6386 93.9546 33.276C93.9546 35.8457 96.0425 37.8745 98.3997 37.8745C99.4773 37.8745 100.353 37.4011 100.824 36.7925H100.892V37.4688C100.892 39.227 99.9488 40.1738 98.3997 40.1738C97.1874 40.1738 96.3792 39.2946 96.1098 38.5508L94.3587 39.2946C94.8975 40.5119 96.1772 41.9997 98.4671 41.9997C100.824 41.9997 102.845 40.5795 102.845 37.1983V28.8803H100.892V29.6242ZM98.5344 36.0486C97.1201 36.0486 95.9751 34.899 95.9751 33.276C95.9751 31.6529 97.1201 30.4357 98.5344 30.4357C99.8814 30.4357 101.026 31.6529 101.026 33.276C101.026 34.899 99.9488 36.0486 98.5344 36.0486ZM124.936 24.0112H120.086V37.604H122.107V32.4644H124.936C127.158 32.4644 129.381 30.8414 129.381 28.2716C129.381 25.7019 127.158 24.0112 124.936 24.0112ZM125.003 30.5709H122.107V25.9047H125.003C126.485 25.9047 127.36 27.1896 127.36 28.204C127.36 29.286 126.485 30.5709 125.003 30.5709ZM137.463 28.6098C135.981 28.6098 134.499 29.286 133.826 30.7062L135.644 31.4501C136.048 30.7062 136.722 30.4357 137.463 30.4357C138.54 30.4357 139.551 31.0443 139.618 32.1939V32.3292C139.281 32.1263 138.473 31.7882 137.53 31.7882C135.577 31.7882 133.624 32.8702 133.624 34.8313C133.624 36.6572 135.24 37.8069 136.991 37.8069C138.338 37.8069 139.079 37.1982 139.551 36.4544H139.618V37.5364H141.571V32.3292C141.638 29.9623 139.82 28.6098 137.463 28.6098ZM137.261 36.0486C136.587 36.0486 135.644 35.7105 135.644 34.899C135.644 33.817 136.789 33.4788 137.799 33.4788C138.675 33.4788 139.079 33.6817 139.618 33.9522C139.483 35.1695 138.406 36.0486 137.261 36.0486ZM148.71 28.8803L146.42 34.7637H146.353L143.928 28.8803H141.773L145.41 37.1306L143.322 41.7292H145.41L151 28.8803H148.71V28.8803ZM130.526 37.604H132.546V24.0112H130.526V37.604Z" fill="white"/>
<path d="M25.4933 12.7079C25.141 13.0618 25 13.6279 25 14.3356V39.4579C25 40.1655 25.2114 40.7317 25.4933 41.0855L25.5638 41.1563L39.589 27.0736V26.9321V26.7198L25.5638 12.5664L25.4933 12.7079Z" fill="#5BC9F4"/>
<path d="M44.2404 31.7439L39.5889 27.0733V26.9318V26.7195L44.2404 22.0488L44.3109 22.1196L49.8787 25.3041C51.4292 26.2241 51.4292 27.7102 49.8787 28.5594L44.3814 31.6731L44.2404 31.7439Z" fill="url(#paint0_linear_667_1126)"/>
<path d="M44.3814 31.6735L39.5888 26.8613L25.4932 41.0147C25.9865 41.5809 26.9027 41.6516 27.8189 41.0855L44.3814 31.6735Z" fill="url(#paint1_linear_667_1126)"/>
<path d="M44.3814 22.049L27.8189 12.637C26.8323 12.0708 25.9865 12.1416 25.4932 12.7077L39.5888 26.8611L44.3814 22.049Z" fill="url(#paint2_linear_667_1126)"/>
<path d="M64.0606 13.4821C63.6389 13.1292 63.0766 12.8469 62.444 12.8469C61.0383 12.8469 59.984 13.9761 59.984 15.3876C59.984 16.799 61.0383 17.9282 62.444 17.9282C63.6389 17.9282 64.4823 17.2225 64.5526 16.0933H62.6549V15.3876H65.5366C65.5366 17.7165 64.2715 18.8457 62.3737 18.8457C60.476 18.8457 59 17.2931 59 15.4581C59 13.5526 60.476 12 62.3737 12C63.2172 12 64.0606 12.3529 64.6229 12.8469L64.0606 13.4821Z" fill="white"/>
<path d="M70.8087 12.0703V12.9172H67.7859V15.0344H70.4572V15.8813H67.7859V17.928H70.9493V18.7748H66.9424V12.0703H70.8087V12.0703Z" fill="white"/>
<path d="M76.5721 12.0703V12.9172H74.5335V18.7748H73.6196V12.9172H71.5811V12.0703H76.5721Z" fill="white"/>
<path d="M80.9295 12.0703V18.7748H80.0156V12.0703H80.9295Z" fill="white"/>
<path d="M87.0448 12.0703V12.9172H85.0062V18.7748H84.0923V12.9172H82.0537V12.0703H87.0448Z" fill="white"/>
<path d="M93.3698 12C95.2676 12 96.7436 13.5526 96.7436 15.4581C96.7436 17.3636 95.2676 18.8457 93.3698 18.8457C91.4721 18.8457 89.9961 17.2931 89.9961 15.4581C89.9961 13.5526 91.4721 12 93.3698 12ZM93.3698 17.9988C94.7756 17.9988 95.8298 16.8696 95.8298 15.4581C95.8298 14.0466 94.7756 12.9175 93.3698 12.9175C91.9641 12.9175 90.9098 14.0466 90.9098 15.4581C90.9098 16.8696 91.9641 17.9988 93.3698 17.9988Z" fill="white"/>
<path d="M102.087 18.7748L99.0642 13.7641V18.7748H98.1504V12.0703H99.0642L102.087 17.0811V12.0703H103.001V18.7748H102.087V18.7748Z" fill="white"/>
<defs>
<linearGradient id="paint0_linear_667_1126" x1="48.8797" y1="26.8509" x2="21.4738" y2="26.8509" gradientUnits="userSpaceOnUse">
<stop stop-color="#FEE000"/>
<stop offset="0.1941" stop-color="#FCCF0B"/>
<stop offset="0.5469" stop-color="#FAB318"/>
<stop offset="0.8279" stop-color="#F9A21B"/>
<stop offset="1" stop-color="#F99B1C"/>
</linearGradient>
<linearGradient id="paint1_linear_667_1126" x1="41.7675" y1="29.4609" x2="15.8857" y2="55.2371" gradientUnits="userSpaceOnUse">
<stop stop-color="#EF4547"/>
<stop offset="1" stop-color="#C6186D"/>
</linearGradient>
<linearGradient id="paint2_linear_667_1126" x1="15.8762" y1="-1.75697" x2="37.008" y2="19.2887" gradientUnits="userSpaceOnUse">
<stop stop-color="#279E6F"/>
<stop offset="0.3168" stop-color="#4DAB6D"/>
<stop offset="0.7398" stop-color="#6ABA6A"/>
<stop offset="1" stop-color="#74C169"/>
</linearGradient>
</defs>
</svg>
