<svg width="22" height="25" viewBox="0 0 22 25" fill="none" xmlns="http://www.w3.org/2000/svg">
<path d="M17.7436 12.8311H4.19434V15.3318H17.7436V12.8311Z" fill="#01A8FF"/>
<path d="M17.7442 12.8311H11.0469V15.3318H17.7442V12.8311Z" fill="#01A8FF"/>
<path d="M20.3494 6.24066L17.7409 13.576H4.19665L1.58817 6.24066C1.45709 5.87328 1.56085 5.46861 1.85232 5.20948C2.14326 4.9503 2.55733 4.89425 2.90682 5.06601L6.88658 7.02509L10.0655 2.48432C10.2716 2.18991 10.6091 2.01367 10.9686 2.01367C10.9949 2.01367 11.0207 2.01468 11.0465 2.01666C11.3772 2.03999 11.681 2.21131 11.8722 2.48432L15.0506 7.02509L19.0308 5.06601C19.3803 4.8942 19.7944 4.9503 20.0853 5.20948C20.3767 5.46861 20.4804 5.87324 20.3494 6.24066Z" fill="#FFA91D"/>
<path d="M12.2223 1.24622C12.2223 1.91051 11.702 2.45364 11.0466 2.49036C11.0233 2.49185 11 2.49234 10.9761 2.49234C10.2875 2.49234 9.72949 1.93431 9.72949 1.24617C9.72949 0.558024 10.2875 0 10.9761 0C11 0 11.0233 0.000481928 11.0466 0.0019759C11.702 0.0387952 12.2223 0.581927 12.2223 1.24622Z" fill="#01A8FF"/>
<path d="M1.24617 5.74527C1.93441 5.74527 2.49234 5.18734 2.49234 4.4991C2.49234 3.81086 1.93441 3.25293 1.24617 3.25293C0.557929 3.25293 0 3.81086 0 4.4991C0 5.18734 0.557929 5.74527 1.24617 5.74527Z" fill="#01A8FF"/>
<path d="M20.754 5.94351C21.4422 5.94351 22.0001 5.38558 22.0001 4.69734C22.0001 4.0091 21.4422 3.45117 20.754 3.45117C20.0657 3.45117 19.5078 4.0091 19.5078 4.69734C19.5078 5.38558 20.0657 5.94351 20.754 5.94351Z" fill="#01A8FF"/>
<path d="M17.7413 13.576H11.0469V2.0166C11.3775 2.03993 11.6814 2.21125 11.8725 2.48426L15.0509 7.02503L19.0312 5.06595C19.3807 4.89414 19.7947 4.95024 20.0857 5.20942C20.3771 5.4686 20.4808 5.87323 20.3498 6.2406L17.7413 13.576Z" fill="#FF8900"/>
<path d="M11.0469 2.49029V0.00195312C11.7022 0.038676 12.2225 0.581808 12.2225 1.2461C12.2226 1.91043 11.7022 2.45357 11.0469 2.49029Z" fill="#01A8FF"/>
<path d="M21.1887 14.7021H0.810547V24.6749H21.1887V14.7021Z" fill="#E70020"/>
<path d="M9.8669 17.5605L8.69476 20.9976L8.22064 19.7401L9.00411 17.567H8.00319L7.52907 19.0619L7.05495 17.567H6.06049L6.83105 19.7401L6.37033 20.9976L5.19119 17.5605H4.01953L5.88281 22.2358H6.79187L7.52912 20.4048L8.27336 22.2358H9.17548L11.0457 17.5605H9.8669Z" fill="white"/>
<path d="M11.4541 17.5605V22.2358H12.5344V17.5605H11.4541Z" fill="white"/>
<path d="M16.4513 17.5605V20.3061L14.2717 17.5605H13.4287V22.2358H14.509V19.5623L16.6623 22.2358H17.5317V17.5605H16.4513Z" fill="white"/>
<path d="M21.1897 14.7021H11.0469V24.6749H21.1897V14.7021Z" fill="#990013"/>
<path d="M12.5354 17.5605H11.4551V22.2358H12.5354V17.5605Z" fill="white"/>
<path d="M16.4532 17.5605H17.5335V22.2358H16.6642L14.511 19.5623V22.2358H13.4307V17.5605H14.2737L16.4532 20.306V17.5605Z" fill="white"/>
</svg>
